<?xml version="1.0" encoding="iso-8859-1"?>
<!-- Uploaded to: SVG Repo, www.svgrepo.com, Generator: SVG Repo Mixer Tools -->
<!DOCTYPE svg PUBLIC "-//W3C//DTD SVG 1.1//EN" "http://www.w3.org/Graphics/SVG/1.1/DTD/svg11.dtd">
<svg fill="#000000" height="800px" width="800px" version="1.1" id="Capa_1" xmlns="http://www.w3.org/2000/svg" xmlns:xlink="http://www.w3.org/1999/xlink" 
	 viewBox="0 0 297 297" xml:space="preserve">
<g>
	<g>
		<path d="M148.498,83.312c-35.822,0-64.967,29.243-64.967,65.188s29.144,65.189,64.967,65.189
			c35.826,0,64.971-29.243,64.971-65.189S184.324,83.312,148.498,83.312z"/>
	</g>
	<g>
		<path d="M293.453,140.717l-27.32-23.745l11.803-34.222c0.975-2.826,0.676-5.936-0.82-8.522c-1.494-2.588-4.039-4.399-6.973-4.966
			l-35.541-6.862l-6.863-35.54c-0.566-2.936-2.377-5.479-4.965-6.975s-5.697-1.795-8.523-0.82l-34.223,11.803L156.285,3.548
			C154.326,1.294,151.486,0,148.5,0c-2.986,0-5.824,1.294-7.783,3.548l-23.744,27.319L82.75,19.065
			c-2.824-0.975-5.934-0.676-8.523,0.82c-2.586,1.496-4.398,4.039-4.965,6.975L62.4,62.4l-35.541,6.86
			c-2.934,0.566-5.479,2.378-6.975,4.965c-1.494,2.589-1.795,5.697-0.82,8.522l11.803,34.226L3.549,140.717
			C1.295,142.675,0,145.514,0,148.5s1.295,5.825,3.549,7.783l27.318,23.745L19.066,214.25c-0.977,2.826-0.676,5.936,0.818,8.523
			c1.496,2.587,4.039,4.398,6.975,4.965L62.4,234.6l6.861,35.541c0.566,2.936,2.379,5.479,4.967,6.975s5.697,1.796,8.521,0.82
			l34.223-11.803l23.744,27.319c1.959,2.254,4.797,3.548,7.783,3.548c2.986,0,5.826-1.294,7.785-3.548l23.742-27.319l34.223,11.803
			c2.826,0.975,5.934,0.676,8.523-0.82c2.588-1.496,4.398-4.039,4.965-6.975L234.6,234.6l35.543-6.861
			c2.934-0.566,5.478-2.378,6.973-4.965c1.496-2.588,1.795-5.697,0.82-8.523l-11.803-34.224l27.32-23.743
			c2.254-1.958,3.547-4.797,3.547-7.783S295.707,142.675,293.453,140.717z M148.498,228.126c-43.783,0-79.404-35.72-79.404-79.626
			c0-43.906,35.621-79.626,79.404-79.626c43.787,0,79.408,35.72,79.408,79.626C227.906,192.406,192.285,228.126,148.498,228.126z"/>
	</g>
</g>
</svg>