<?xml version="1.0" encoding="iso-8859-1"?>
<!-- Uploaded to: SVG Repo, www.svgrepo.com, Generator: SVG Repo Mixer Tools -->
<svg fill="#000000" height="800px" width="800px" version="1.1" id="Layer_1" xmlns="http://www.w3.org/2000/svg" xmlns:xlink="http://www.w3.org/1999/xlink" 
	 viewBox="0 0 512 512" xml:space="preserve">
<g>
	<g>
		<path d="M480.265,273.067l29.867-37.333c2.048-2.56,2.449-6.076,1.024-9.028c-1.417-2.961-4.412-4.838-7.689-4.838h-85.333v-25.6
			c0-4.71-3.823-8.533-8.533-8.533h-17.067v-68.267c0-4.71-3.823-8.533-8.533-8.533h-25.6v-25.6c0-4.71-3.823-8.533-8.533-8.533
			H162.134c-4.71,0-8.533,3.823-8.533,8.533v25.6H128c-4.71,0-8.533,3.823-8.533,8.533v68.267H102.4
			c-4.71,0-8.533,3.823-8.533,8.533v25.6H8.534c-3.277,0-6.272,1.877-7.689,4.838c-1.425,2.953-1.024,6.468,1.024,9.028
			l29.867,37.333L1.869,310.409c-2.048,2.551-2.449,6.067-1.024,9.02c1.417,2.961,4.412,4.838,7.689,4.838h110.933v17.067
			c0,2.859,1.425,5.521,3.797,7.1l128,85.333c1.434,0.956,3.089,1.434,4.736,1.434c1.647,0,3.302-0.478,4.736-1.434l128-85.333
			c2.372-1.579,3.797-4.241,3.797-7.1v-17.067h110.933c3.277,0,6.272-1.877,7.689-4.838c1.425-2.953,1.024-6.468-1.024-9.02
			L480.265,273.067z M375.467,315.734v21.035L256,416.41l-119.467-79.642v-21.035v-25.6H153.6v32.939c0,2.85,1.425,5.513,3.797,7.1
			l93.867,62.575c1.434,0.947,3.089,1.434,4.736,1.434c1.647,0,3.302-0.486,4.736-1.434l93.867-62.575
			c2.372-1.587,3.797-4.25,3.797-7.1v-32.939h17.067V315.734z M315.734,162.134h25.6v25.6H170.667v-25.6h25.6
			c4.71,0,8.533-3.823,8.533-8.533V128h102.4v25.6C307.2,158.311,311.023,162.134,315.734,162.134z M341.334,290.134v28.365
			L256,375.39l-85.333-56.892v-28.365H341.334z M375.467,187.734H358.4V153.6c0-4.71-3.823-8.533-8.533-8.533h-25.6v-25.6
			c0-4.71-3.823-8.533-8.533-8.533H196.267c-4.71,0-8.533,3.823-8.533,8.533v25.6h-25.6c-4.71,0-8.533,3.823-8.533,8.533v34.133
			h-17.067V128h25.6c4.71,0,8.533-3.823,8.533-8.533v-25.6h170.667v25.6c0,4.71,3.823,8.533,8.533,8.533h25.6V187.734z"/>
	</g>
</g>
</svg>