<?xml version="1.0" encoding="iso-8859-1"?>
<!-- Uploaded to: SVG Repo, www.svgrepo.com, Generator: SVG Repo Mixer Tools -->
<svg fill="#000000" height="800px" width="800px" version="1.1" id="Layer_1" xmlns="http://www.w3.org/2000/svg" xmlns:xlink="http://www.w3.org/1999/xlink" 
	 viewBox="0 0 512.004 512.004" xml:space="preserve">
<g>
	<g>
		<g>
			<path d="M256.002,179.202c-47.053,0-85.333,38.281-85.333,85.333s38.281,85.333,85.333,85.333s85.333-38.281,85.333-85.333
				S303.055,179.202,256.002,179.202z M256.002,230.402c-18.825,0-34.133,15.309-34.133,34.133c0,4.71-3.814,8.533-8.533,8.533
				c-4.719,0-8.533-3.823-8.533-8.533c0-28.237,22.963-51.2,51.2-51.2c4.719,0,8.533,3.823,8.533,8.533
				S260.721,230.402,256.002,230.402z"/>
			<path d="M510.534,123.215c-1.587-2.338-4.233-3.746-7.066-3.746h-128c-3.055,0-5.888,1.638-7.407,4.301l-26.3,46.02
				c-22.724-20.591-52.753-33.254-85.76-33.254s-63.036,12.663-85.76,33.254l-26.3-46.02c-1.519-2.662-4.352-4.301-7.407-4.301h-128
				c-2.833,0-5.478,1.408-7.066,3.746c-1.587,2.347-1.911,5.325-0.862,7.962l8.977,22.426h58.684c4.719,0,8.533,3.823,8.533,8.533
				s-3.814,8.533-8.533,8.533H16.411l6.827,17.067h53.564c4.719,0,8.533,3.823,8.533,8.533s-3.814,8.533-8.533,8.533H30.065
				l6.827,17.067h56.977c4.719,0,8.533,3.823,8.533,8.533c0,4.71-3.814,8.533-8.533,8.533h-50.15l20.369,50.918
				c3.49,8.738,8.252,16.887,14.131,24.226c18.193,22.69,45.303,35.703,74.385,35.703h8.183
				c23.45,26.163,57.387,42.752,95.215,42.752c37.828,0,71.765-16.589,95.215-42.752h8.183c29.082,0,56.192-13.013,74.385-35.703
				c5.879-7.339,10.641-15.488,14.131-24.226l20.369-50.918h-50.15c-4.719,0-8.533-3.823-8.533-8.533
				c0-4.71,3.814-8.533,8.533-8.533h56.977l6.827-17.067h-46.737c-4.719,0-8.533-3.823-8.533-8.533s3.814-8.533,8.533-8.533h53.564
				l6.827-17.067h-51.857c-4.719,0-8.533-3.823-8.533-8.533s3.814-8.533,8.533-8.533h58.684l8.977-22.426
				C512.446,128.539,512.121,125.561,510.534,123.215z M366.406,275.023c-0.137,1.417-0.375,2.825-0.563,4.232
				c-0.265,1.98-0.538,3.959-0.904,5.914c-0.324,1.698-0.725,3.379-1.126,5.06c-0.393,1.621-0.785,3.234-1.246,4.83
				c-0.503,1.741-1.058,3.473-1.638,5.197c-0.521,1.519-1.075,3.021-1.655,4.506c-0.649,1.655-1.314,3.302-2.039,4.924
				c-0.7,1.579-1.468,3.115-2.244,4.659c-0.725,1.442-1.442,2.884-2.236,4.292c-0.998,1.784-2.082,3.507-3.174,5.222
				c-0.7,1.101-1.365,2.227-2.108,3.311c-1.485,2.167-3.081,4.25-4.71,6.306c-0.469,0.589-0.888,1.203-1.374,1.784
				c-20.361,24.542-51.072,40.209-85.385,40.209c-34.313,0-65.024-15.667-85.385-40.209c-0.486-0.58-0.905-1.195-1.374-1.784
				c-1.63-2.057-3.226-4.139-4.71-6.306c-0.742-1.084-1.408-2.21-2.108-3.311c-1.092-1.715-2.176-3.439-3.174-5.222
				c-0.794-1.408-1.51-2.85-2.236-4.292c-0.777-1.545-1.545-3.081-2.244-4.659c-0.725-1.621-1.391-3.268-2.039-4.924
				c-0.58-1.485-1.135-2.987-1.655-4.506c-0.58-1.724-1.135-3.456-1.638-5.197c-0.461-1.596-0.853-3.209-1.246-4.83
				c-0.401-1.681-0.802-3.362-1.126-5.06c-0.367-1.954-0.64-3.934-0.905-5.914c-0.188-1.408-0.427-2.816-0.563-4.232
				c-0.324-3.456-0.529-6.946-0.529-10.487c0-3.644,0.205-7.245,0.546-10.803c0.154-1.579,0.444-3.132,0.666-4.693
				c0.273-1.937,0.512-3.874,0.888-5.777c0.384-1.954,0.896-3.866,1.382-5.794c0.358-1.451,0.691-2.91,1.118-4.335
				c0.623-2.116,1.374-4.198,2.125-6.272c0.427-1.169,0.819-2.347,1.28-3.49c0.888-2.193,1.877-4.352,2.901-6.485
				c0.461-0.964,0.905-1.929,1.391-2.876c1.152-2.236,2.406-4.42,3.712-6.588c0.461-0.768,0.913-1.545,1.399-2.295
				c1.434-2.244,2.961-4.437,4.565-6.579c0.452-0.614,0.905-1.229,1.374-1.835c1.69-2.176,3.482-4.292,5.342-6.357
				c20.318-22.502,49.613-36.753,82.244-36.753s61.926,14.251,82.244,36.753c1.86,2.065,3.652,4.181,5.342,6.357
				c0.469,0.606,0.922,1.22,1.374,1.835c1.604,2.142,3.132,4.335,4.565,6.579c0.486,0.751,0.939,1.527,1.399,2.295
				c1.306,2.167,2.56,4.352,3.712,6.588c0.486,0.947,0.93,1.911,1.391,2.876c1.024,2.133,2.014,4.292,2.901,6.485
				c0.461,1.143,0.853,2.321,1.28,3.49c0.751,2.074,1.502,4.156,2.125,6.272c0.427,1.425,0.759,2.884,1.118,4.335
				c0.486,1.929,0.998,3.84,1.382,5.794c0.375,1.903,0.614,3.84,0.887,5.777c0.222,1.562,0.512,3.115,0.666,4.693
				c0.341,3.558,0.546,7.159,0.546,10.803C366.935,268.077,366.73,271.567,366.406,275.023z"/>
		</g>
	</g>
</g>
</svg>